# xmcd
#
# Track frame offsets:
#	150
#	24866
#	41279
#	58170
#	72855
#	89865
#	110725
#	128799
#	146699
#	162576
#	179306
#	197517
#	213084
#	227786
#	244712
#
# Disc length: 3484 seconds
#
# Revision: 1
# Processed by: cddbd v1.5.2PL0 Copyright (c) Steve Scherf et al.
# Submitted via: audiograbber 1.83.01
#
DISCID=d50d9a0f
DTITLE=Chartbuster Country Karaoke - CBP60377
DYEAR=1900
DGENRE=Country
TTITLE0=Keith Urban and Ronnie Dunn - Raise The Barn
TTITLE1=Brooks and Dunn - Put A Girl In It
TTITLE2=Taylor Swift - I'm Only Me When I'm With You
TTITLE3=Darius Rucker - Don't Think I Don't Think About It
TTITLE4=Eli Young Band - When It Rains
TTITLE5=Allison Moorer - Dancing Barefoot
TTITLE6=Lonestar - Let Me Love You
TTITLE7=Jason Aldean - Relentless
TTITLE8=Ashley Gearing - Out The Window
TTITLE9=Chuck Wicks - All I Ever Wanted
TTITLE10=Jeremy McComb - This Town Needs A Bar
TTITLE11=Ashton Shepherd - I Ain't Dead Yet
TTITLE12=Chris Young - Voices
TTITLE13=Chris Cagle - No Love Songs
TTITLE14=Bucky Covington - I'll Walk
EXTD=
EXTT0=
EXTT1=
EXTT2=
EXTT3=
EXTT4=
EXTT5=
EXTT6=
EXTT7=
EXTT8=
EXTT9=
EXTT10=
EXTT11=
EXTT12=
EXTT13=
EXTT14=
PLAYORDER=
